<svg width="1440" height="800" viewBox="0 0 1440 800" fill="none" xmlns="http://www.w3.org/2000/svg">
<line x1="120.9" y1="-3.93403e-08" x2="120.9" y2="814" stroke="#4A3082" stroke-opacity="0.1" stroke-width="1.8"/>
<line x1="40.9" y1="-3.93403e-08" x2="40.9" y2="814" stroke="#4A3082" stroke-opacity="0.1" stroke-width="1.8"/>
<line x1="280.9" y1="-3.93403e-08" x2="280.9" y2="814" stroke="#4A3082" stroke-opacity="0.1" stroke-width="1.8"/>
<line x1="440.9" y1="-3.93403e-08" x2="440.9" y2="814" stroke="#4A3082" stroke-opacity="0.1" stroke-width="1.8"/>
<line x1="600.9" y1="-3.93403e-08" x2="600.9" y2="814" stroke="#4A3082" stroke-opacity="0.1" stroke-width="1.8"/>
<line x1="760.9" y1="-3.93403e-08" x2="760.9" y2="814" stroke="#4A3082" stroke-opacity="0.1" stroke-width="1.8"/>
<line x1="200.9" y1="-3.93403e-08" x2="200.9" y2="814" stroke="#4A3082" stroke-opacity="0.1" stroke-width="1.8"/>
<line x1="360.9" y1="-3.93403e-08" x2="360.9" y2="814" stroke="#4A3082" stroke-opacity="0.1" stroke-width="1.8"/>
<line x1="520.9" y1="-3.93403e-08" x2="520.9" y2="814" stroke="#4A3082" stroke-opacity="0.1" stroke-width="1.8"/>
<line x1="680.9" y1="-3.93403e-08" x2="680.9" y2="814" stroke="#4A3082" stroke-opacity="0.1" stroke-width="1.8"/>
<line x1="840.9" y1="-3.93403e-08" x2="840.9" y2="814" stroke="#4A3082" stroke-opacity="0.1" stroke-width="1.8"/>
<line x1="920.9" y1="-3.93403e-08" x2="920.9" y2="814" stroke="#4A3082" stroke-opacity="0.1" stroke-width="1.8"/>
<line x1="1000.9" y1="-3.93403e-08" x2="1000.9" y2="814" stroke="#4A3082" stroke-opacity="0.1" stroke-width="1.8"/>
<line x1="1080.9" y1="-3.93403e-08" x2="1080.9" y2="814" stroke="#4A3082" stroke-opacity="0.1" stroke-width="1.8"/>
<line x1="1160.9" y1="-3.93403e-08" x2="1160.9" y2="814" stroke="#4A3082" stroke-opacity="0.1" stroke-width="1.8"/>
<line x1="1240.9" y1="-3.93403e-08" x2="1240.9" y2="814" stroke="#4A3082" stroke-opacity="0.1" stroke-width="1.8"/>
<line x1="1320.9" y1="-3.93403e-08" x2="1320.9" y2="814" stroke="#4A3082" stroke-opacity="0.1" stroke-width="1.8"/>
<line x1="1400.9" y1="-3.93403e-08" x2="1400.9" y2="814" stroke="#4A3082" stroke-opacity="0.1" stroke-width="1.8"/>
<line y1="60.1" x2="1440" y2="60.1" stroke="#4A3082" stroke-opacity="0.1" stroke-width="1.8"/>
<line y1="300.1" x2="1440" y2="300.1" stroke="#4A3082" stroke-opacity="0.1" stroke-width="1.8"/>
<line y1="140.1" x2="1440" y2="140.1" stroke="#4A3082" stroke-opacity="0.1" stroke-width="1.8"/>
<line y1="380.1" x2="1440" y2="380.1" stroke="#4A3082" stroke-opacity="0.1" stroke-width="1.8"/>
<line y1="460.1" x2="1440" y2="460.1" stroke="#4A3082" stroke-opacity="0.1" stroke-width="1.8"/>
<line y1="540.1" x2="1440" y2="540.1" stroke="#4A3082" stroke-opacity="0.1" stroke-width="1.8"/>
<line y1="620.1" x2="1440" y2="620.1" stroke="#4A3082" stroke-opacity="0.1" stroke-width="1.8"/>
<line y1="700.1" x2="1440" y2="700.1" stroke="#4A3082" stroke-opacity="0.1" stroke-width="1.8"/>
<line y1="780.1" x2="1440" y2="780.1" stroke="#4A3082" stroke-opacity="0.1" stroke-width="1.8"/>
<line y1="220.1" x2="1440" y2="220.1" stroke="#4A3082" stroke-opacity="0.1" stroke-width="1.8"/>
</svg>
